# xmcd
#
# Track frame offsets: 
#        150
#        10783
#        23448
#        44418
#        69559
#        80594
#        98172
#        109019
#        124708
#        136164
#        150925
#        166184
#        179358
#        198960
#        212033
#
# Disc length: 2976 seconds
#
# Revision: 0
# Processed by: cddbd v1.5.2PL0 Copyright (c) Steve Scherf et al.
# Submitted via: ExactAudioCopyFreeDBPlugin 1.0
#
DISCID=b50b9e0f
DTITLE=Various Artist - Faith, Hope and Country - Wings Of A Dove - Dis
DTITLE=c 1
DYEAR=2016
DGENRE=Country
TTITLE0=Johnny Cash - Daddy Sang Bass
TTITLE1=Charley Pride - The Church In The Wildwood
TTITLE2=Dolly Parton - He's Alive
TTITLE3=Willie Nelson - Whispering Hope
TTITLE4=Elvis Presley - Crying In The Chapel
TTITLE5=Johnny Cash - Were You There (When They Crucified My Lord)
TTITLE6=Jim Reeves - Take My Hand, Precious Lord
TTITLE7=Kris Kristofferson - Why me
TTITLE8=Ray Price with Orchestra and Chorus - Just As I Am
TTITLE9=Elvis Presley - His Hand In Mine
TTITLE10=Charley Pride - Let Me Live
TTITLE11=Roy Acuff and His Crazy Tennesseans - Great Speckle Bird
TTITLE12=Larry Gatlin - Help me
TTITLE13=Dolly Parton - Golden Streets Of Glory
TTITLE14=Elvis Presley - The Impossible Dream (The Quest)
EXTD=
EXTT0=
EXTT1=
EXTT2=
EXTT3=
EXTT4=
EXTT5=
EXTT6=
EXTT7=
EXTT8=
EXTT9=
EXTT10=
EXTT11=
EXTT12=
EXTT13=
EXTT14=
PLAYORDER=
